<?xml version="1.0" encoding="UTF-8"?>
<svg version="1.1" xmlns="http://www.w3.org/2000/svg" width="182" height="178">
<path d="M0 0 C60.06 0 120.12 0 182 0 C182 58.74 182 117.48 182 178 C121.94 178 61.88 178 0 178 C0 119.26 0 60.52 0 0 Z " fill="#F0F0F0" transform="translate(0,0)"/>
<path d="M0 0 C60.06 0 120.12 0 182 0 C182 58.74 182 117.48 182 178 C178.7 178 175.4 178 172 178 C172 176.02 172 174.04 172 172 C169.36 172 166.72 172 164 172 C164.63021205 168.98075236 165.37419004 167.37519321 167.02709961 164.61523438 C170.01666645 158.7447569 169.59164949 152.60929306 169.56640625 146.15625 C169.57165205 144.8192095 169.577932 143.4821727 169.58518982 142.1451416 C169.59554944 139.35455808 169.59109688 136.56448591 169.57641602 133.77392578 C169.55922147 130.21628274 169.5827516 126.66025396 169.61790562 123.10279083 C169.63997403 120.34529128 169.63841594 117.5881726 169.6301403 114.83061218 C169.62893346 112.88756077 169.64876582 110.94453248 169.66908264 109.00158691 C169.57538871 100.06930675 167.92922037 94.92922037 161.625 88.625 C155.31243728 84.71722308 148.78843312 84.6352714 141.5625 84.625 C140.65951172 84.60050781 139.75652344 84.57601562 138.82617188 84.55078125 C132.71602086 84.52423461 128.0792915 85.48840979 123 89 C122.13375 89.9075 121.2675 90.815 120.375 91.75 C118 94 118 94 114.6875 94.3125 C113.800625 94.209375 112.91375 94.10625 112 94 C111.67 94.66 111.34 95.32 111 96 C110.01 95.01 109.02 94.02 108 93 C108.495 91.515 108.495 91.515 109 90 C109.04346001 88.50062972 109.03998579 86.99946695 109 85.5 C108.92108687 82.54075767 109.04446414 80.86660758 110 78 C111.671875 76.421875 111.671875 76.421875 113.75 74.75 C120.94172897 68.62609483 125.47744593 61.43439757 127 52 C127.51285452 43.83377807 127.47803971 36.49116245 124 29 C123.67128906 28.25234375 123.34257813 27.5046875 123.00390625 26.734375 C118.6604568 17.89718374 111.17277542 11.49263994 102 8 C92.13461116 4.71153705 81.5789876 4.78405367 72 9 C60.74779634 14.95704899 53.92067929 22.18524229 49.91796875 34.265625 C47.53491125 43.96010573 47.78731242 53.74652356 52.515625 62.60546875 C59.4965193 73.8667535 66.90365682 79.79943481 79.375 84.1875 C84.22048735 85.27355751 89.05274184 85.66004374 94 86 C94 88.31 94 90.62 94 93 C88.72 93 83.44 93 78 93 C78 95.97 78 98.94 78 102 C76.74340576 102.21934204 76.74340576 102.21934204 75.46142578 102.44311523 C72.35616267 102.98667643 69.25140831 103.53303318 66.14697266 104.08129883 C64.80276927 104.31810066 63.45836839 104.55378425 62.11376953 104.78833008 C60.18210225 105.12548086 58.25119482 105.46697611 56.3203125 105.80859375 C54.57645264 106.11494751 54.57645264 106.11494751 52.79736328 106.42749023 C50.06054011 106.86189856 50.06054011 106.86189856 48 108 C45.28239892 108.07181821 42.59140612 108.09299506 39.875 108.0625 C39.12089844 108.05798828 38.36679687 108.05347656 37.58984375 108.04882812 C35.72652873 108.03703499 33.86325445 108.01909942 32 108 C32 103.38 32 98.76 32 94 C38.435 93.505 38.435 93.505 45 93 C46.14077657 89.57767028 46.09815117 86.91326783 46.0625 83.3125 C46.041875 81.229375 46.02125 79.14625 46 77 C41.05 77 36.1 77 31 77 C31 72.05 31 67.1 31 62 C25.72 62 20.44 62 15 62 C15 66.95 15 71.9 15 77 C19.84666111 76.92098174 19.84666111 76.92098174 24.69287109 76.81982422 C26.46287275 76.8051883 28.23272455 76.90071486 30 77 C30.66 77.66 31.32 78.32 32 79 C31.96619794 83.69848693 31.42579581 88.31624605 31 93 C25.72 93 20.44 93 15 93 C15 97.95 15 102.9 15 108 C10.05 108 5.1 108 0 108 C0 72.36 0 36.72 0 0 Z " fill="#F6F6F6" transform="translate(0,0)"/>
<path d="M0 0 C8.0264186 7.33763662 13.51414209 16.26364719 14.203125 27.234375 C14.29949628 34.46222116 13.96159597 40.38147683 11 47 C10.74476562 47.66257813 10.48953125 48.32515625 10.2265625 49.0078125 C6.25864427 58.29055698 -1.87990554 65.03681759 -11 69 C-19.7704494 72.5156334 -31.10582892 72.38564574 -40.0625 69.375 C-51.12613321 64.58801196 -59.33775771 56.07006344 -64 45 C-64.35835937 44.25492188 -64.71671875 43.50984375 -65.0859375 42.7421875 C-67.94244768 34.17265695 -66.87526466 22.07917366 -63 14 C-56.8956418 3.43173129 -48.08697645 -4.7821574 -36.1875 -8.3125 C-22.96228315 -11.04693847 -10.73050191 -8.04348589 0 0 Z " fill="#020202" transform="translate(114,14)"/>
<path d="M0 0 C1.90845703 -0.00193359 1.90845703 -0.00193359 3.85546875 -0.00390625 C5.16644531 -0.00003906 6.47742188 0.00382812 7.828125 0.0078125 C9.1679697 0.0042465 10.50781354 0.00034307 11.84765625 -0.00390625 C13.74837891 -0.00197266 13.74837891 -0.00197266 15.6875 0 C16.84217773 0.00112793 17.99685547 0.00225586 19.18652344 0.00341797 C22.078125 0.1328125 22.078125 0.1328125 25.078125 1.1328125 C24.088125 4.4328125 23.098125 7.7328125 22.078125 11.1328125 C21.0159375 11.13539062 19.95375 11.13796875 18.859375 11.140625 C8.36181941 11.29978489 8.36181941 11.29978489 -0.5390625 16.46484375 C-4.3208788 21.02652612 -4.46300376 25.29486411 -4.37109375 31.078125 C-3.67591157 35.80536383 -1.5497425 39.06368381 2.078125 42.1328125 C6.19732447 44.30844602 10.31733483 44.5477475 14.890625 44.7578125 C15.92993164 44.81582031 15.92993164 44.81582031 16.99023438 44.875 C18.68579515 44.96854818 20.38192212 45.05173614 22.078125 45.1328125 C22.72916667 47.0859375 23.38020833 49.0390625 24.03125 50.9921875 C24.97260369 53.27839488 24.97260369 53.27839488 27.12792969 54.87597656 C29.69508146 57.84677664 29.49609723 59.51945131 29.328125 63.3828125 C29.29203125 64.46046875 29.2559375 65.538125 29.21875 66.6484375 C29.17234375 67.46828125 29.1259375 68.288125 29.078125 69.1328125 C17.95151143 69.20232658 6.82494954 69.255631 -4.30183697 69.28824902 C-9.4684739 69.30390412 -14.63496225 69.32513972 -19.80151367 69.35913086 C-24.78763604 69.39172961 -29.77361549 69.40966668 -34.7598362 69.41744423 C-36.6620388 69.42298679 -38.56423359 69.43381005 -40.46637535 69.45000267 C-43.13099438 69.47178376 -45.79502305 69.47477914 -48.4597168 69.47338867 C-49.24590393 69.4841745 -50.03209106 69.49496033 -50.84210205 69.506073 C-55.39828767 69.480351 -58.30215868 68.95126006 -61.921875 66.1328125 C-65.82518217 61.55721335 -66.51723293 57.72333236 -66.453125 51.8828125 C-66.4569519 51.10647461 -66.46077881 50.33013672 -66.46472168 49.53027344 C-66.46743154 47.8964711 -66.46013531 46.2626247 -66.44335938 44.62890625 C-66.42193371 42.13963354 -66.44318966 39.65324632 -66.46875 37.1640625 C-66.46610656 35.57030618 -66.46098123 33.97655165 -66.453125 32.3828125 C-66.46122192 31.64514648 -66.46931885 30.90748047 -66.47766113 30.14746094 C-66.38526985 25.01133215 -65.20099894 22.0617606 -61.921875 18.1328125 C-60.15771484 16.78076172 -60.15771484 16.78076172 -58.3828125 15.9375 C-57.71894531 15.61394531 -57.05507813 15.29039063 -56.37109375 14.95703125 C-55.68660156 14.64378906 -55.00210938 14.33054687 -54.296875 14.0078125 C-53.63558594 13.68683594 -52.97429688 13.36585937 -52.29296875 13.03515625 C-50.18505173 12.02772566 -48.06121637 11.07161609 -45.921875 10.1328125 C-45.14320068 9.79048584 -44.36452637 9.44815918 -43.56225586 9.09545898 C-37.40525432 6.50518801 -31.25614748 4.84508561 -24.734375 3.4453125 C-23.78884766 3.23326172 -22.84332031 3.02121094 -21.86914062 2.80273438 C-14.56235367 1.18862186 -7.50933834 0.00730683 0 0 Z " fill="#020202" transform="translate(78.921875,101.8671875)"/>
<path d="M0 0 C0.89847656 -0.00708984 1.79695313 -0.01417969 2.72265625 -0.02148438 C10.00955954 0.04746012 16.65787423 1.25576848 22.3125 6.25 C22.85519531 6.71019531 23.39789063 7.17039062 23.95703125 7.64453125 C27.62402845 11.90567483 28.87543342 16.04961738 28.90405273 21.59130859 C28.91673691 22.78629974 28.92942108 23.98129089 28.94248962 25.2124939 C28.93955399 26.49073029 28.93661835 27.76896667 28.93359375 29.0859375 C28.9381614 30.42583479 28.9434687 31.76572974 28.94947815 33.10562134 C28.95838909 35.90807638 28.95601035 38.71024618 28.94604492 41.51269531 C28.93457065 45.08586536 28.95475165 48.65804483 28.98396206 52.23108482 C29.00240281 54.99712271 29.0020159 57.76292678 28.99632454 60.52901077 C28.99609867 62.48091072 29.0129277 64.43278893 29.03013611 66.38461304 C28.96209166 75.09817382 27.81650513 80.40391268 22.1875 87.25 C15.45996027 92.72590443 9.08703713 92.98439714 0.6875 93 C-0.34181641 93.03673828 -1.37113281 93.07347656 -2.43164062 93.11132812 C-10.13488377 93.1551796 -15.45655393 91.28099819 -21.5 86.4375 C-22.88125018 83.67499964 -22.69079306 81.49018901 -22.5 78.4375 C-20.5 76.4375 -20.5 76.4375 -17.625 76.125 C-14.5 76.4375 -14.5 76.4375 -12.62109375 77.92993164 C-8.74545256 80.6845454 -4.10257589 79.90770564 0.5 79.875 C1.49773437 79.89498047 2.49546875 79.91496094 3.5234375 79.93554688 C9.06342171 79.94196678 9.06342171 79.94196678 14.140625 77.98828125 C16.19282847 74.13745117 16.17600401 70.49272131 16.25 66.1875 C16.27964844 65.34703125 16.30929688 64.5065625 16.33984375 63.640625 C16.41031636 61.5734285 16.45744939 59.50545967 16.5 57.4375 C10.89 57.1075 5.28 56.7775 -0.5 56.4375 C-0.5 61.7175 -0.5 66.9975 -0.5 72.4375 C-3.92689636 73.57979879 -6.11102218 73.34611076 -9.6875 73 C-10.77417969 72.89816406 -11.86085937 72.79632813 -12.98046875 72.69140625 C-14.22763672 72.56572266 -14.22763672 72.56572266 -15.5 72.4375 C-15.5 69.1375 -15.5 65.8375 -15.5 62.4375 C-16.8303125 63.675 -16.8303125 63.675 -18.1875 64.9375 C-20.37894978 66.7568168 -21.321014 67.40420028 -24.1875 67.9375 C-26.5 67.4375 -26.5 67.4375 -28.3125 66.3125 C-30.10767534 63.47801261 -30.02651051 61.72819071 -29.5 58.4375 C-27.88644498 56.71936271 -26.22293247 55.04593379 -24.5 53.4375 C-25.79417847 53.42348145 -25.79417847 53.42348145 -27.11450195 53.40917969 C-30.3186184 53.36514278 -33.52177728 53.30352106 -36.7253418 53.22998047 C-38.11128396 53.20177203 -39.49738696 53.18055667 -40.88354492 53.16650391 C-42.87707404 53.14507579 -44.87025046 53.09632986 -46.86328125 53.046875 C-48.06251221 53.02592773 -49.26174316 53.00498047 -50.49731445 52.98339844 C-53.5 52.4375 -53.5 52.4375 -55.42260742 50.59472656 C-56.95820021 47.52006128 -56.48370742 45.66968153 -55.5 42.4375 C-51.96435537 40.08040358 -50.27974745 40.13740265 -46.08203125 40.0234375 C-44.20161133 39.96542969 -44.20161133 39.96542969 -42.28320312 39.90625 C-40.97287109 39.8753125 -39.66253906 39.844375 -38.3125 39.8125 C-36.9771884 39.77430662 -35.64190108 39.73525409 -34.30664062 39.6953125 C-31.03790112 39.60090847 -27.76916936 39.51532983 -24.5 39.4375 C-25.3146875 38.67695312 -26.129375 37.91640625 -26.96875 37.1328125 C-29.5 34.4375 -29.5 34.4375 -30 31.3125 C-29.46567755 28.24014589 -28.95179712 27.27634784 -26.5 25.4375 C-28.15 25.1075 -29.8 24.7775 -31.5 24.4375 C-31.5 20.1475 -31.5 15.8575 -31.5 11.4375 C-30.283125 11.210625 -29.06625 10.98375 -27.8125 10.75 C-23.45922541 9.67502326 -21.59729818 7.68966309 -18.5 4.4375 C-12.55540004 0.35505312 -7.05758149 -0.15694765 0 0 Z " fill="#EDEDED" transform="translate(141.5,83.5625)"/>
<path d="M0 0 C0.91201172 -0.01611328 1.82402344 -0.03222656 2.76367188 -0.04882812 C10.14916595 -0.05412239 16.7556516 1.05152441 22.5 6.125 C23.04269531 6.58519531 23.58539063 7.04539062 24.14453125 7.51953125 C27.81152845 11.78067483 29.06293342 15.92461738 29.09155273 21.46630859 C29.10423691 22.66129974 29.11692108 23.85629089 29.12998962 25.0874939 C29.12705399 26.36573029 29.12411835 27.64396667 29.12109375 28.9609375 C29.1256614 30.30083479 29.1309687 31.64072974 29.13697815 32.98062134 C29.14588909 35.78307638 29.14351035 38.58524618 29.13354492 41.38769531 C29.12207065 44.96086536 29.14225165 48.53304483 29.17146206 52.10608482 C29.18990281 54.87212271 29.1895159 57.63792678 29.18382454 60.40401077 C29.18359867 62.35591072 29.2004277 64.30778893 29.21763611 66.25961304 C29.14959166 74.97317382 28.00400513 80.27891268 22.375 87.125 C15.64746027 92.60090443 9.27453713 92.85939714 0.875 92.875 C-0.15431641 92.91173828 -1.18363281 92.94847656 -2.24414062 92.98632812 C-9.94738377 93.0301796 -15.26905393 91.15599819 -21.3125 86.3125 C-22.69375018 83.54999964 -22.50329306 81.36518901 -22.3125 78.3125 C-20.3125 76.3125 -20.3125 76.3125 -17.4375 76 C-14.3125 76.3125 -14.3125 76.3125 -12.43359375 77.80493164 C-8.55795256 80.5595454 -3.91507589 79.78270564 0.6875 79.75 C1.68523437 79.76998047 2.68296875 79.78996094 3.7109375 79.81054688 C4.67257813 79.80990234 5.63421875 79.80925781 6.625 79.80859375 C7.50027344 79.81044678 8.37554687 79.8122998 9.27734375 79.81420898 C12.53875082 79.13529979 13.60632902 77.88485231 15.6875 75.3125 C16.28977415 72.60644718 16.28977415 72.60644718 16.20507812 69.59765625 C16.21768677 68.44966553 16.23029541 67.3016748 16.24328613 66.11889648 C16.23518921 64.88341064 16.22709229 63.6479248 16.21875 62.375 C16.2225769 61.10277588 16.22640381 59.83055176 16.23034668 58.51977539 C16.23306927 55.82936173 16.22769814 53.14040129 16.20898438 50.45019531 C16.18619362 47.00655255 16.19931969 43.56415673 16.22327423 40.12055969 C16.24122552 36.83032872 16.2286472 33.54024725 16.21875 30.25 C16.22684692 29.01451416 16.23494385 27.77902832 16.24328613 26.50610352 C16.23067749 25.35811279 16.21806885 24.21012207 16.20507812 23.02734375 C16.20189575 22.01792725 16.19871338 21.00851074 16.19543457 19.96850586 C15.55170917 16.60244545 14.34226628 15.4129105 11.6875 13.3125 C9.27253178 12.70431667 9.27253178 12.70431667 6.66015625 12.78125 C5.70302734 12.77609375 4.74589844 12.7709375 3.75976562 12.765625 C2.76654297 12.78109375 1.77332031 12.7965625 0.75 12.8125 C-0.7340332 12.78929688 -0.7340332 12.78929688 -2.24804688 12.765625 C-7.98201626 12.79647352 -11.0747851 13.10828483 -15.3125 17.3125 C-18.73583251 17.15327523 -19.8756237 16.7493763 -22.3125 14.3125 C-22.875 11 -22.875 11 -22.3125 7.3125 C-20.27073781 5.11014977 -17.96912059 3.68448781 -15.3125 2.3125 C-14.6215625 1.94382812 -13.930625 1.57515625 -13.21875 1.1953125 C-8.83030539 -0.13773653 -4.56058498 -0.01591272 0 0 Z " fill="#0B0B0B" transform="translate(141.3125,83.6875)"/>
<path d="M0 0 C5.32795245 1.67103963 8.46210448 5.3401794 12.3125 9.265625 C13.09625 10.02166016 13.88 10.77769531 14.6875 11.55664062 C15.42742187 12.29978516 16.16734375 13.04292969 16.9296875 13.80859375 C17.60370605 14.48301514 18.27772461 15.15743652 18.97216797 15.85229492 C20.94059521 18.84232344 20.96739705 20.56075891 20.4375 24.078125 C18.86450195 26.41162109 18.86450195 26.41162109 16.67578125 28.6015625 C15.49145508 29.79072266 15.49145508 29.79072266 14.28320312 31.00390625 C13.44724609 31.81214844 12.61128906 32.62039062 11.75 33.453125 C10.93337891 34.28457031 10.11675781 35.11601562 9.27539062 35.97265625 C3.16916995 41.99482368 3.16916995 41.99482368 -0.22583008 42.38134766 C-2.5625 42.078125 -2.5625 42.078125 -4.375 40.953125 C-6.17017534 38.11863761 -6.08901051 36.36881571 -5.5625 33.078125 C-3.94894498 31.35998771 -2.28543247 29.68655879 -0.5625 28.078125 C-1.85667847 28.06410645 -1.85667847 28.06410645 -3.17700195 28.04980469 C-6.3811184 28.00576778 -9.58427728 27.94414606 -12.7878418 27.87060547 C-14.17378396 27.84239703 -15.55988696 27.82118167 -16.94604492 27.80712891 C-18.93957404 27.78570079 -20.93275046 27.73695486 -22.92578125 27.6875 C-24.12501221 27.66655273 -25.32424316 27.64560547 -26.55981445 27.62402344 C-29.5625 27.078125 -29.5625 27.078125 -31.48510742 25.23535156 C-33.02070021 22.16068628 -32.54620742 20.31030653 -31.5625 17.078125 C-28.02685537 14.72102858 -26.34224745 14.77802765 -22.14453125 14.6640625 C-20.26411133 14.60605469 -20.26411133 14.60605469 -18.34570312 14.546875 C-17.03537109 14.5159375 -15.72503906 14.485 -14.375 14.453125 C-13.0396884 14.41493162 -11.70440108 14.37587909 -10.36914062 14.3359375 C-7.10040112 14.24153347 -3.83166936 14.15595483 -0.5625 14.078125 C-1.3771875 13.31757812 -2.191875 12.55703125 -3.03125 11.7734375 C-5.5625 9.078125 -5.5625 9.078125 -6.0625 5.953125 C-5.5625 3.078125 -5.5625 3.078125 -4.4375 1.140625 C-2.5625 0.078125 -2.5625 0.078125 0 0 Z " fill="#070707" transform="translate(117.5625,108.921875)"/>
<path d="M0 0 C10.56 0 21.12 0 32 0 C32 4.62 32 9.24 32 14 C36.62 14 41.24 14 46 14 C47.34937888 27.37111801 47.34937888 27.37111801 45.90625 29.96875 C43.08300449 31.49607954 40.96371119 31.0602239 37.8125 30.6875 C35.894375 30.460625 33.97625 30.23375 32 30 C32 25.05 32 20.1 32 15 C26.39 14.67 20.78 14.34 15 14 C15 19.28 15 24.56 15 30 C12 31 12 31 0 30 C0 20.1 0 10.2 0 0 Z " fill="#EFEFEF" transform="translate(0,0)"/>
<path d="M0 0 C5.28 0 10.56 0 16 0 C16 0.99 16 1.98 16 3 C16.99 3 17.98 3 19 3 C18.93489583 5.01822917 18.86979167 7.03645833 18.8046875 9.0546875 C18.81668311 11.23863645 18.81668311 11.23863645 21 13 C23.41482413 13.50059916 23.41482413 13.50059916 26 13 C28.18777466 11.0624994 28.18777466 11.0624994 30 9 C30.66 9 31.32 9 32 9 C32 12.3 32 15.6 32 19 C36.95 19 41.9 19 47 19 C47 13.72 47 8.44 47 3 C49.43375 2.979375 51.8675 2.95875 54.375 2.9375 C55.13989746 2.928396 55.90479492 2.91929199 56.69287109 2.90991211 C61.77777778 2.88888889 61.77777778 2.88888889 64 4 C64.13539281 6.89740622 64.23426829 9.78845621 64.3125 12.6875 C64.35439453 13.50412109 64.39628906 14.32074219 64.43945312 15.16210938 C64.5223576 19.25759038 64.31736314 21.47218923 62.16796875 25.046875 C57.49267603 27.92929961 53.38618837 27.69292472 48 27.5625 C47.01515625 27.57345703 46.0303125 27.58441406 45.015625 27.59570312 C40.54284262 27.55037087 37.7354581 27.42631333 33.8125 25.15234375 C32 23 32 23 32 20 C27.38 20 22.76 20 18 20 C16.25878454 23.48243093 16.5937644 27.50306686 16.37890625 31.34765625 C16.19134766 32.66056641 16.19134766 32.66056641 16 34 C15.01 34.495 15.01 34.495 14 35 C12.93614517 31.80843552 12.83322018 29.41502524 12.8125 26.0625 C12.79832031 25.02222656 12.78414062 23.98195312 12.76953125 22.91015625 C13 20 13 20 14.00390625 18.04296875 C15.44461647 15.08810034 15.19020334 12.51016694 15.125 9.25 C15.08375 7.1875 15.0425 5.125 15 3 C10.05 3 5.1 3 0 3 C0 2.01 0 1.02 0 0 Z " fill="#FAFAFA" transform="translate(94,137)"/>
<path d="M0 0 C0.98484375 -0.01482422 1.9696875 -0.02964844 2.984375 -0.04492188 C10.09559797 0.03676109 10.09559797 0.03676109 13.78979492 2.69482422 C16.7460661 6.69769311 16.64776135 9.42746641 16.48828125 14.26953125 C16.48120651 15.08371017 16.47413177 15.8978891 16.46684265 16.73674011 C16.43895598 19.32544643 16.37623316 21.91195273 16.3125 24.5 C16.2874095 26.25973428 16.26459764 28.01950263 16.24414062 29.77929688 C16.18914872 34.08287296 16.10291992 38.3848141 16 42.6875 C15.67 42.6875 15.34 42.6875 15 42.6875 C15 38.3975 15 34.1075 15 29.6875 C9.72 29.6875 4.44 29.6875 -1 29.6875 C-1 24.4075 -1 19.1275 -1 13.6875 C-4.4340625 13.7184375 -4.4340625 13.7184375 -7.9375 13.75 C-10.29166332 13.77120868 -12.64686445 13.76021741 -15 13.6875 C-16 12.6875 -16 12.6875 -16.375 10 C-15.97850988 6.49767064 -15.11170261 4.60302111 -12.78759766 1.95532227 C-9.02286797 -0.71474619 -4.43567317 -0.12482588 0 0 Z " fill="#F7F7F7" transform="translate(142,95.3125)"/>
<path d="M0 0 C4.29 0 8.58 0 13 0 C13.02505615 1.11560303 13.0501123 2.23120605 13.07592773 3.38061523 C13.16983421 7.5049259 13.27009514 11.6290615 13.37231445 15.75317383 C13.415727 17.5408927 13.45739729 19.32865474 13.49731445 21.11645508 C13.5548646 23.68063391 13.61860203 26.24459412 13.68359375 28.80859375 C13.70030624 29.6127623 13.71701874 30.41693085 13.73423767 31.24546814 C13.49220696 34.92669998 13.49220696 34.92669998 15 38 C15.14115161 40.67058851 15.04247107 43.32432238 15 46 C10.05 46 5.1 46 0 46 C0 30.82 0 15.64 0 0 Z " fill="#EFEFEF" transform="translate(0,125)"/>
<path d="M0 0 C4.95 0 9.9 0 15 0 C15 4.62 15 9.24 15 14 C19.62 14 24.24 14 29 14 C27.32761762 17.34476475 25.59893213 20.10170245 23.4375 23.125 C21.03268334 26.45091748 21.03268334 26.45091748 19 30 C18.33484375 30.23460938 17.6696875 30.46921875 16.984375 30.7109375 C16.32953125 31.13632812 15.6746875 31.56171875 15 32 C14.29327794 35.10930941 14.29327794 35.10930941 14.25 38.625 C14.1675 40.72875 14.085 42.8325 14 45 C9.38 45 4.76 45 0 45 C0 40.38 0 35.76 0 31 C6.435 30.505 6.435 30.505 13 30 C14.14077657 26.57767028 14.09815117 23.91326783 14.0625 20.3125 C14.041875 18.229375 14.02125 16.14625 14 14 C9.38 14 4.76 14 0 14 C0 9.38 0 4.76 0 0 Z " fill="#FEFEFE" transform="translate(32,0)"/>
<path d="M0 0 C2.43375 -0.04125 4.8675 -0.0825 7.375 -0.125 C8.13989746 -0.14320801 8.90479492 -0.16141602 9.69287109 -0.18017578 C11.46287275 -0.1948117 13.23272455 -0.09928514 15 0 C15.66 0.66 16.32 1.32 17 2 C16.96619794 6.69848693 16.42579581 11.31624605 16 16 C10.72 16 5.44 16 0 16 C0 10.72 0 5.44 0 0 Z M-15 16 C-10.05 16 -5.1 16 0 16 C0 20.95 0 25.9 0 31 C-4.95 31 -9.9 31 -15 31 C-15 26.05 -15 21.1 -15 16 Z " fill="#FEFEFE" transform="translate(15,77)"/>
<path d="M0 0 C2.43375 -0.04125 4.8675 -0.0825 7.375 -0.125 C8.13989746 -0.14320801 8.90479492 -0.16141602 9.69287109 -0.18017578 C11.46287275 -0.1948117 13.23272455 -0.09928514 15 0 C15.66 0.66 16.32 1.32 17 2 C16.96619794 6.69848693 16.42579581 11.31624605 16 16 C10.72 16 5.44 16 0 16 C0 10.72 0 5.44 0 0 Z M-15 16 C-10.05 16 -5.1 16 0 16 C0 20.95 0 25.9 0 31 C-4.95 31 -9.9 31 -15 31 C-15 26.05 -15 21.1 -15 16 Z " fill="#FEFEFE" transform="translate(15,14)"/>
<path d="M0 0 C2.43375 -0.04125 4.8675 -0.0825 7.375 -0.125 C8.13989746 -0.14320801 8.90479492 -0.16141602 9.69287109 -0.18017578 C11.46287275 -0.1948117 13.23272455 -0.09928514 15 0 C15.66 0.66 16.32 1.32 17 2 C16.96619794 6.69848693 16.42579581 11.31624605 16 16 C10.72 16 5.44 16 0 16 C0 10.72 0 5.44 0 0 Z M-14 16 C-9.38 16 -4.76 16 0 16 C0 20.95 0 25.9 0 31 C-3.96 31 -7.92 31 -12 31 C-12.53093324 29.06524329 -13.04942317 27.12706845 -13.5625 25.1875 C-13.85253906 24.10855469 -14.14257812 23.02960937 -14.44140625 21.91796875 C-15 19 -15 19 -14 16 Z " fill="#FEFEFE" transform="translate(141,14)"/>
<path d="M0 0 C3.3 0 6.6 0 10 0 C10 4.95 10 9.9 10 15 C7.03 15 4.06 15 1 15 C1.05220703 16.46373047 1.05220703 16.46373047 1.10546875 17.95703125 C1.13253906 19.22933594 1.15960938 20.50164062 1.1875 21.8125 C1.23970703 23.70935547 1.23970703 23.70935547 1.29296875 25.64453125 C1 29 1 29 -0.51171875 30.94921875 C-1.00285156 31.29597656 -1.49398437 31.64273438 -2 32 C-2.66 31.67 -3.32 31.34 -4 31 C-4.33 31.66 -4.66 32.32 -5 33 C-5.680625 32.071875 -6.36125 31.14375 -7.0625 30.1875 C-9.97217695 26.66438688 -12.75515177 25.57216601 -17 24 C-17.99 23.34 -18.98 22.68 -20 22 C-18.02 22.33 -16.04 22.66 -14 23 C-14 20.36 -14 17.72 -14 15 C-9.38 15 -4.76 15 0 15 C0 10.05 0 5.1 0 0 Z " fill="#EDEDED" transform="translate(172,62)"/>
<path d="M0 0 C2.97 0 5.94 0 9 0 C9 5.28 9 10.56 9 16 C5.7 16 2.4 16 -1 16 C-0.67 10.72 -0.34 5.44 0 0 Z M-15 16 C-10.38 16 -5.76 16 -1 16 C-1 20.95 -1 25.9 -1 31 C-5.95 31 -10.9 31 -16 31 C-15.67 26.05 -15.34 21.1 -15 16 Z " fill="#FEFEFE" transform="translate(173,46)"/>
<path d="M0 0 C1.48019816 1.9590858 2.94521988 3.92223741 4.359375 5.9296875 C9.49518055 13.1140447 14.65359588 17.80642959 22.88671875 21.140625 C24.98545273 21.99408429 26.98631361 22.96361061 29 24 C28.34 24 27.68 24 27 24 C27 26.64 27 29.28 27 32 C22.04380087 33.65206638 17.1596656 32.49932248 12 32 C11.67 27.05 11.34 22.1 11 17 C6.05 16.67 1.1 16.34 -4 16 C-4 11.38 -4 6.76 -4 2 C-2.68 1.34 -1.36 0.68 0 0 Z " fill="#EBEBEB" transform="translate(51,61)"/>
<path d="M0 0 C1.76537109 -0.00386719 1.76537109 -0.00386719 3.56640625 -0.0078125 C6.4375 0.125 6.4375 0.125 7.4375 1.125 C7.92969675 4.19655693 8.0237446 7.0646956 7.4375 10.125 C4.5625 12.5 4.5625 12.5 1.4375 14.125 C0.4475 15.61 0.4475 15.61 -0.5625 17.125 C-3.6875 17.3125 -3.6875 17.3125 -6.5625 17.125 C-6.8925 17.785 -7.2225 18.445 -7.5625 19.125 C-8.5525 18.135 -9.5425 17.145 -10.5625 16.125 C-10.2325 15.135 -9.9025 14.145 -9.5625 13.125 C-9.51903999 11.62562972 -9.52251421 10.12446695 -9.5625 8.625 C-9.64141313 5.66575767 -9.51803586 3.99160758 -8.5625 1.125 C-5.69616205 -0.30816898 -3.19014499 -0.00700361 0 0 Z " fill="#FCFCFC" transform="translate(118.5625,76.875)"/>
<path d="M0 0 C4.95 0 9.9 0 15 0 C15 5.28 15 10.56 15 16 C10.04380087 17.65206638 5.1596656 16.49932248 0 16 C0 10.72 0 5.44 0 0 Z " fill="#EFEFEF" transform="translate(0,77)"/>
<path d="M0 0 C0.33 0.99 0.66 1.98 1 3 C4.96 3 8.92 3 13 3 C13 8.28 13 13.56 13 19 C8.05 19 3.1 19 -2 19 C-3.12526054 15.62421838 -2.58732549 14.33382434 -1.546875 11.05078125 C-0.58211954 7.43294827 -0.32069325 3.72172958 0 0 Z " fill="#EDEDED" transform="translate(128,43)"/>
<path d="M0 0 C5.28 0.33 10.56 0.66 16 1 C16 5.95 16 10.9 16 16 C11.05 16 6.1 16 1 16 C0.67 10.72 0.34 5.44 0 0 Z " fill="#FEFEFE" transform="translate(125,61)"/>
<path d="M0 0 C4.62 0 9.24 0 14 0 C15.125 13.75 15.125 13.75 14 16 C9.38 16 4.76 16 0 16 C-1.125 2.25 -1.125 2.25 0 0 Z " fill="#EFEFEF" transform="translate(158,46)"/>
<path d="M0 0 C4.62 0 9.24 0 14 0 C15.125 13.75 15.125 13.75 14 16 C9.38 16 4.76 16 0 16 C-1.125 2.25 -1.125 2.25 0 0 Z " fill="#EFEFEF" transform="translate(32,46)"/>
<path d="M0 0 C4.62 0 9.24 0 14 0 C15.34937888 13.37111801 15.34937888 13.37111801 13.90625 15.96875 C11.08300449 17.49607954 8.96371119 17.0602239 5.8125 16.6875 C3.894375 16.460625 1.97625 16.23375 0 16 C0 10.72 0 5.44 0 0 Z " fill="#EFEFEF" transform="translate(32,14)"/>
<path d="M0 0 C5.28 0 10.56 0 16 0 C16.495 6.93 16.495 6.93 17 14 C11.56344584 15.81218472 5.63517506 14.46528968 0 14 C0 9.38 0 4.76 0 0 Z " fill="#EEEEEE" transform="translate(47,0)"/>
<path d="M0 0 C4.95 0 9.9 0 15 0 C15 4.95 15 9.9 15 15 C10.05 15 5.1 15 0 15 C0 10.05 0 5.1 0 0 Z " fill="#FFFFFF" transform="translate(0,62)"/>
<path d="M0 0 C2 2 2 2 2.1953125 5.2578125 C2.13020833 8.83854167 2.06510417 12.41927083 2 16 C6.95 16 11.9 16 17 16 C17 18.31 17 20.62 17 23 C16.00419922 23.09087891 16.00419922 23.09087891 14.98828125 23.18359375 C8.45091919 23.79863507 8.45091919 23.79863507 2 25 C1.67 22.36 1.34 19.72 1 17 C-2.96 16.67 -6.92 16.34 -11 16 C-10.0925 14.96875 -9.185 13.9375 -8.25 12.875 C-4.84167763 8.89459515 -1.67358595 5.02075784 0 0 Z " fill="#E9E9E9" transform="translate(124,61)"/>
<path d="M0 0 C4.29 0 8.58 0 13 0 C14.7479503 5.24385089 15.19392201 9.47322267 15 15 C10.05 15 5.1 15 0 15 C0 10.05 0 5.1 0 0 Z " fill="#FDFDFD" transform="translate(0,156)"/>
<path d="M0 0 C4.95 0 9.9 0 15 0 C15 4.62 15 9.24 15 14 C10.05 14 5.1 14 0 14 C0 9.38 0 4.76 0 0 Z " fill="#FFFFFF" transform="translate(126,0)"/>
<path d="M0 0 C4.95 0 9.9 0 15 0 C15 4.62 15 9.24 15 14 C10.05 14 5.1 14 0 14 C0 9.38 0 4.76 0 0 Z " fill="#FFFFFF" transform="translate(0,0)"/>
<path d="M0 0 C0.66 0.66 1.32 1.32 2 2 C4.57061311 2.64767793 4.57061311 2.64767793 7 3 C7.19390729 5.31197155 7.37996367 7.6246029 7.5625 9.9375 C7.66691406 11.22527344 7.77132812 12.51304688 7.87890625 13.83984375 C7.91886719 14.88269531 7.95882812 15.92554687 8 17 C7 18 7 18 3.83984375 18.09765625 C2.55207031 18.08605469 1.26429687 18.07445313 -0.0625 18.0625 C-1.35285156 18.05347656 -2.64320312 18.04445313 -3.97265625 18.03515625 C-4.97167969 18.02355469 -5.97070312 18.01195313 -7 18 C-7 14.7 -7 11.4 -7 8 C-10.3 8 -13.6 8 -17 8 C-17 7.67 -17 7.34 -17 7 C-11.72 7 -6.44 7 -1 7 C-0.67 4.69 -0.34 2.38 0 0 Z " fill="#EBEBEB" transform="translate(102,106)"/>
<path d="M0 0 C3.3 0 6.6 0 10 0 C10 4.95 10 9.9 10 15 C7.03 15 4.06 15 1 15 C1.03480469 15.97582031 1.06960937 16.95164063 1.10546875 17.95703125 C1.13253906 19.22933594 1.15960938 20.50164062 1.1875 21.8125 C1.22230469 23.07707031 1.25710937 24.34164062 1.29296875 25.64453125 C1 29 1 29 -2 32 C-2 26.39 -2 20.78 -2 15 C-1.34 15 -0.68 15 0 15 C0 10.05 0 5.1 0 0 Z " fill="#F0F0F0" transform="translate(172,125)"/>
<path d="M0 0 C4.62 0 9.24 0 14 0 C14 4.62 14 9.24 14 14 C9.38 14 4.76 14 0 14 C0 9.38 0 4.76 0 0 Z " fill="#FEFEFE" transform="translate(32,94)"/>
<path d="M0 0 C4.62 0 9.24 0 14 0 C14 4.62 14 9.24 14 14 C9.38 14 4.76 14 0 14 C0 9.38 0 4.76 0 0 Z " fill="#FFFFFF" transform="translate(158,31)"/>
<path d="M0 0 C4.62 0 9.24 0 14 0 C14 4.62 14 9.24 14 14 C9.38 14 4.76 14 0 14 C0 9.38 0 4.76 0 0 Z " fill="#FFFFFF" transform="translate(158,0)"/>
<path d="M0 0 C4.29 0 8.58 0 13 0 C13 4.95 13 9.9 13 15 C8.71 15 4.42 15 0 15 C0 10.05 0 5.1 0 0 Z " fill="#FFFFFF" transform="translate(0,125)"/>
<path d="M0 0 C1.39456452 0.00667256 2.78911118 0.01863093 4.18359375 0.03515625 C4.89451172 0.03966797 5.60542969 0.04417969 6.33789062 0.04882812 C8.09899388 0.06064761 9.86005411 0.07858362 11.62109375 0.09765625 C11.62109375 3.06765625 11.62109375 6.03765625 11.62109375 9.09765625 C12.28109375 9.42765625 12.94109375 9.75765625 13.62109375 10.09765625 C12.5846875 10.30261719 11.54828125 10.50757812 10.48046875 10.71875 C9.11066686 10.99083394 7.74087576 11.26297221 6.37109375 11.53515625 C5.68917969 11.66986328 5.00726563 11.80457031 4.3046875 11.94335938 C1.05639917 12.58986336 -2.17706603 13.2476832 -5.37890625 14.09765625 C-5.23861206 11.95145365 -5.09152461 9.80569407 -4.94140625 7.66015625 C-4.86019531 6.46519531 -4.77898438 5.27023438 -4.6953125 4.0390625 C-4.2741197 0.12352947 -4.2741197 0.12352947 0 0 Z " fill="#EBEBEB" transform="translate(51.37890625,93.90234375)"/>
<path d="M0 0 C2.97 0 5.94 0 9 0 C9 5.28 9 10.56 9 16 C6.94921875 16.22786458 4.8984375 16.45572917 2.84765625 16.68359375 C0.98859771 16.81886614 0.98859771 16.81886614 0 18 C-0.23481693 20.18292774 -0.41363323 22.37203174 -0.5625 24.5625 C-0.68818359 26.35880859 -0.68818359 26.35880859 -0.81640625 28.19140625 C-0.87699219 29.11824219 -0.93757812 30.04507813 -1 31 C-1.66 31 -2.32 31 -3 31 C-3.06058594 30.41992188 -3.12117187 29.83984375 -3.18359375 29.2421875 C-3.66016561 24.79907137 -4.21008666 20.40094577 -5 16 C-4.01 16 -3.02 16 -2 16 C-0.5192152 13.0384304 -0.64685963 10.16493705 -0.4375 6.875 C-0.35371094 5.59367187 -0.26992187 4.31234375 -0.18359375 2.9921875 C-0.09271484 1.51105469 -0.09271484 1.51105469 0 0 Z " fill="#FEFEFE" transform="translate(173,77)"/>
<path d="M0 0 C2.97 0 5.94 0 9 0 C9 5.28 9 10.56 9 16 C5.7 16 2.4 16 -1 16 C-0.67 10.72 -0.34 5.44 0 0 Z M-3 16 C-2.34 16 -1.68 16 -1 16 C-1 20.95 -1 25.9 -1 31 C-1.66 31 -2.32 31 -3 31 C-3 26.05 -3 21.1 -3 16 Z " fill="#FEFEFE" transform="translate(173,109)"/>
<path d="M0 0 C4.95 0 9.9 0 15 0 C16.48846154 13.27211538 16.48846154 13.27211538 14.015625 16.95703125 C13.01789063 17.96830078 13.01789063 17.96830078 12 19 C8.35224614 15.11690718 7.41474367 12.28798182 7 7 C5.02 7 3.04 7 1 7 C0.67 4.69 0.34 2.38 0 0 Z " fill="#EDEDED" transform="translate(94,140)"/>
<path d="M0 0 C1.22691067 2.45382134 1.20175931 4.19984103 1.25 6.9375 C1.27578125 7.81277344 1.3015625 8.68804687 1.328125 9.58984375 C1 12 1 12 -0.12890625 13.8359375 C-2.91302474 15.56801956 -4.98000651 15.06688095 -8.1875 14.6875 C-9.81751953 14.50767578 -9.81751953 14.50767578 -11.48046875 14.32421875 C-12.31191406 14.21722656 -13.14335938 14.11023438 -14 14 C-14 11.69 -14 9.38 -14 7 C-17.96 7 -21.92 7 -26 7 C-26 6.67 -26 6.34 -26 6 C-24.69289063 5.97873047 -24.69289063 5.97873047 -23.359375 5.95703125 C-14.60902939 5.60663862 -7.83631356 3.88945234 0 0 Z " fill="#E9E9E9" transform="translate(109,79)"/>
<path d="M0 0 C1.50433594 0.01353516 1.50433594 0.01353516 3.0390625 0.02734375 C3.80992188 0.03894531 4.58078125 0.05054687 5.375 0.0625 C5.375 3.3625 5.375 6.6625 5.375 10.0625 C-0.29142551 11.28767308 -5.86208518 11.15478867 -11.625 11.0625 C-11.80435219 7.4993699 -11.83111943 6.36480849 -9.75 3.3125 C-6.48296952 -0.14670874 -4.63156042 -0.05385535 0 0 Z " fill="#FDFDFD" transform="translate(89.625,113.9375)"/>
<path d="M0 0 C0 3.63 0 7.26 0 11 C-4.95 11 -9.9 11 -15 11 C-15 5 -15 5 -13.6875 2.125 C-9.37365117 -1.28595024 -5.38358447 -0.32045146 0 0 Z " fill="#FEFEFE" transform="translate(141,97)"/>
<path d="M0 0 C1.28132813 0.00902344 2.56265625 0.01804688 3.8828125 0.02734375 C4.87023437 0.03894531 5.85765625 0.05054688 6.875 0.0625 C6.875 1.0525 6.875 2.0425 6.875 3.0625 C4.895 3.7225 2.915 4.3825 0.875 5.0625 C0.80072162 8.40502724 0.80953047 10.8660914 1.875 14.0625 C-1.755 14.0625 -5.385 14.0625 -9.125 14.0625 C-9.125 9.7725 -9.125 5.4825 -9.125 1.0625 C-6.12186252 -0.43906874 -3.33432478 -0.03031204 0 0 Z " fill="#E7E7E7" transform="translate(119.125,156.9375)"/>
<path d="M0 0 C2.97 0 5.94 0 9 0 C9 5.28 9 10.56 9 16 C1.375 17 1.375 17 -2 17 C-1.505 15.515 -1.505 15.515 -1 14 C-0.77439324 11.60745424 -0.59151405 9.21071877 -0.4375 6.8125 C-0.35371094 5.54019531 -0.26992187 4.26789063 -0.18359375 2.95703125 C-0.12300781 1.98121094 -0.06242188 1.00539062 0 0 Z " fill="#FEFEFE" transform="translate(173,140)"/>
<path d="M0 0 C2.05078125 0.03255208 4.1015625 0.06510417 6.15234375 0.09765625 C6.15234375 5.04765625 6.15234375 9.99765625 6.15234375 15.09765625 C3.18234375 15.09765625 0.21234375 15.09765625 -2.84765625 15.09765625 C-2.87451037 12.78521833 -2.89398466 10.47269355 -2.91015625 8.16015625 C-2.92175781 6.87238281 -2.93335938 5.58460938 -2.9453125 4.2578125 C-2.81833933 0.14896085 -2.81833933 0.14896085 0 0 Z " fill="#EFEFEF" transform="translate(175.84765625,155.90234375)"/>
<path d="M0 0 C2.05078125 0.03255208 4.1015625 0.06510417 6.15234375 0.09765625 C6.15234375 5.04765625 6.15234375 9.99765625 6.15234375 15.09765625 C3.18234375 15.09765625 0.21234375 15.09765625 -2.84765625 15.09765625 C-2.87451037 12.78521833 -2.89398466 10.47269355 -2.91015625 8.16015625 C-2.92175781 6.87238281 -2.93335938 5.58460937 -2.9453125 4.2578125 C-2.81833933 0.14896085 -2.81833933 0.14896085 0 0 Z " fill="#EFEFEF" transform="translate(175.84765625,29.90234375)"/>
<path d="M0 0 C5.28 0 10.56 0 16 0 C16 2.64 16 5.28 16 8 C10.72 8 5.44 8 0 8 C0 5.36 0 2.72 0 0 Z " fill="#EDEDED" transform="translate(78,94)"/>
<path d="M0 0 C2.97 0 5.94 0 9 0 C9 4.62 9 9.24 9 14 C6.03 14 3.06 14 0 14 C0 9.38 0 4.76 0 0 Z " fill="#EFEFEF" transform="translate(173,0)"/>
<path d="M0 0 C2.45840605 -0.02691685 4.91651882 -0.04679802 7.375 -0.0625 C8.07367188 -0.07087891 8.77234375 -0.07925781 9.4921875 -0.08789062 C14.7734375 -0.11328125 14.7734375 -0.11328125 17 1 C17 3.31 17 5.62 17 8 C11.39 7.67 5.78 7.34 0 7 C0 4.69 0 2.38 0 0 Z " fill="#FEFEFE" transform="translate(141,77)"/>
<path d="M0 0 C4.95 0 9.9 0 15 0 C15 3.3 15 6.6 15 10 C9.45949887 9.43174347 4.96284034 7.37113483 0 5 C0 3.35 0 1.7 0 0 Z " fill="#FBFBFB" transform="translate(95,0)"/>
<path d="M0 0 C5.28 0 10.56 0 16 0 C16.33 0.66 16.66 1.32 17 2 C15.34341375 4.36655178 14.4528653 5.57041593 12 7 C7.96746391 7.44572896 4.04092798 7.29001875 0 7 C0 4.69 0 2.38 0 0 Z " fill="#EDEDED" transform="translate(141,157)"/>
<path d="M0 0 C1.26972656 0.00257813 2.53945312 0.00515625 3.84765625 0.0078125 C5.11480469 0.00523437 6.38195312 0.00265625 7.6875 0 C10.91015625 0.1328125 10.91015625 0.1328125 12.91015625 1.1328125 C12.91015625 2.7828125 12.91015625 4.4328125 12.91015625 6.1328125 C7.30015625 6.1328125 1.69015625 6.1328125 -4.08984375 6.1328125 C-4.08984375 0.17579607 -4.08984375 0.17579607 0 0 Z " fill="#FCFCFC" transform="translate(113.08984375,171.8671875)"/>
<path d="M0 0 C5.28 0 10.56 0 16 0 C16.33 1.98 16.66 3.96 17 6 C11.39 6 5.78 6 0 6 C0 4.02 0 2.04 0 0 Z " fill="#FEFEFE" transform="translate(78,172)"/>
<path d="M0 0 C5.28 0 10.56 0 16 0 C16.33 1.98 16.66 3.96 17 6 C11.39 6 5.78 6 0 6 C0 4.02 0 2.04 0 0 Z " fill="#FEFEFE" transform="translate(15,172)"/>
<path d="M0 0 C2.45840605 -0.02691685 4.91651882 -0.04679802 7.375 -0.0625 C8.07367188 -0.07087891 8.77234375 -0.07925781 9.4921875 -0.08789062 C14.7734375 -0.11328125 14.7734375 -0.11328125 17 1 C17 2.98 17 4.96 17 7 C11.26288519 7.34422689 6.93016931 7.36694489 2 4 C0.83984375 1.890625 0.83984375 1.890625 0 0 Z " fill="#F8F8F8" transform="translate(78,140)"/>
<path d="M0 0 C2.47923801 -0.02685095 4.9581884 -0.04676547 7.4375 -0.0625 C8.14455078 -0.07087891 8.85160156 -0.07925781 9.58007812 -0.08789062 C11.38693559 -0.09653588 13.19387603 -0.05220011 15 0 C16 1 16 1 16 6 C10.72 6 5.44 6 0 6 C0 4.02 0 2.04 0 0 Z " fill="#FFFFFF" transform="translate(47,172)"/>
<path d="M0 0 C5.28 0 10.56 0 16 0 C16 1.98 16 3.96 16 6 C11.05 6 6.1 6 1 6 C0.67 4.02 0.34 2.04 0 0 Z " fill="#F0F0F0" transform="translate(31,172)"/>
<path d="M0 0 C5.28 0 10.56 0 16 0 C16 1.98 16 3.96 16 6 C11.05 6 6.1 6 1 6 C0.67 4.02 0.34 2.04 0 0 Z " fill="#EFEFEF" transform="translate(62,172)"/>
<path d="M0 0 C5.61 0 11.22 0 17 0 C17.33 1.98 17.66 3.96 18 6 C12.06 6 6.12 6 0 6 C0 4.02 0 2.04 0 0 Z " fill="#ECECEC" transform="translate(78,0)"/>
<path d="M0 0 C1.64574566 -0.02688151 3.29161413 -0.04634123 4.9375 -0.0625 C5.85402344 -0.07410156 6.77054687 -0.08570313 7.71484375 -0.09765625 C10 0 10 0 11 1 C11.07313567 3.53049402 11.09247527 6.03304837 11.0625 8.5625 C11.05798828 9.27341797 11.05347656 9.98433594 11.04882812 10.71679688 C11.03700864 12.47790013 11.01907263 14.23896036 11 16 C8.37091973 14.68545986 7.95869684 13.28268716 6.625 10.6875 C4.76790111 7.2157721 2.90568892 4.6904527 0 2 C0 1.34 0 0.68 0 0 Z " fill="#F9F9F9" transform="translate(115,14)"/>
<path d="M0 0 C2.97 0 5.94 0 9 0 C9 1.98 9 3.96 9 6 C6.03 6 3.06 6 0 6 C0 4.02 0 2.04 0 0 Z " fill="#FFFFFF" transform="translate(173,172)"/>
<path d="M0 0 C4.95 0 9.9 0 15 0 C15 0.99 15 1.98 15 3 C10.05 3 5.1 3 0 3 C0 2.01 0 1.02 0 0 Z " fill="#FEFEFE" transform="translate(94,137)"/>
<path d="M0 0 C0.33 0 0.66 0 1 0 C1.226875 0.86625 1.45375 1.7325 1.6875 2.625 C3.24025095 6.61778814 5.14319895 8.84248305 8 12 C5.03 12 2.06 12 -1 12 C-0.67 8.04 -0.34 4.08 0 0 Z " fill="#F9F9F9" transform="translate(110,112)"/>
<path d="M0 0 C0.66 0 1.32 0 2 0 C2.19441368 2.2910905 2.38033135 4.58290337 2.5625 6.875 C2.66691406 8.15117188 2.77132812 9.42734375 2.87890625 10.7421875 C3 14 3 14 2 16 C1.34 16 0.68 16 0 16 C0 10.72 0 5.44 0 0 Z " fill="#EFEFEF" transform="translate(170,109)"/>
<path d="M0 0 C2.97 0 5.94 0 9 0 C7.35 1.65 5.7 3.3 4 5 C3.01 4.67 2.02 4.34 1 4 C0.67 2.68 0.34 1.36 0 0 Z " fill="#E8E8E8" transform="translate(109,136)"/>
<path d="M0 0 C0 0.99 0 1.98 0 3 C-5.61 3 -11.22 3 -17 3 C-17 2.67 -17 2.34 -17 2 C-16.22914063 1.93941406 -15.45828125 1.87882813 -14.6640625 1.81640625 C-13.15972656 1.69072266 -13.15972656 1.69072266 -11.625 1.5625 C-10.62726563 1.48128906 -9.62953125 1.40007812 -8.6015625 1.31640625 C-5.21522585 0.9045545 -3.61528954 0 0 0 Z " fill="#FBFBFB" transform="translate(158,175)"/>
<path d="M0 0 C0.66 0.33 1.32 0.66 2 1 C1.2884375 1.5878125 1.2884375 1.5878125 0.5625 2.1875 C-1.35179633 4.40808374 -1.61266988 6.13375709 -2 9 C-2.99 9 -3.98 9 -5 9 C-5.33 9.99 -5.66 10.98 -6 12 C-5.59791618 6.37082652 -3.71069698 3.99613521 0 0 Z " fill="#D7D7D7" transform="translate(80,116)"/>
<path d="M0 0 C2.97 0 5.94 0 9 0 C5.71536341 2.18975773 2.79303725 2.99806563 -1 4 C-0.67 2.68 -0.34 1.36 0 0 Z " fill="#E4E4E4" transform="translate(32,109)"/>
<path d="M0 0 C2.43929746 1.92576115 4.80090595 3.80090595 7 6 C4.69 6 2.38 6 0 6 C0 4.02 0 2.04 0 0 Z " fill="#E0E0E0" transform="translate(15,165)"/>
<path d="M0 0 C0.99 0.33 1.98 0.66 3 1 C2.34 3.31 1.68 5.62 1 8 C-1 6 -1 6 -1.1875 3.4375 C-1 1 -1 1 0 0 Z " fill="#E5E5E5" transform="translate(48,30)"/>
</svg>
