<?xml version="1.0" encoding="UTF-8"?>
<svg version="1.1" xmlns="http://www.w3.org/2000/svg" width="413" height="282">
<path d="M0 0 C136.29 0 272.58 0 413 0 C413 93.06 413 186.12 413 282 C276.71 282 140.42 282 0 282 C0 188.94 0 95.88 0 0 Z " fill="#F2F4F3" transform="translate(0,0)"/>
<path d="M0 0 C5.81244473 4.0848404 11.76377534 7.95343497 17.71484375 11.83203125 C20.21144532 13.46146266 22.70740091 15.09188121 25.203125 16.72265625 C25.87265198 17.1600563 26.54217896 17.59745636 27.23199463 18.04811096 C33.20879957 21.95593262 39.17195749 25.88430874 45.1328125 29.81640625 C46.10237885 30.45595245 47.07194519 31.09549866 48.07089233 31.75442505 C51.96737344 34.32504624 55.8635922 36.89606283 59.75891113 39.46844482 C65.04625132 42.95996064 70.33798291 46.44461386 75.63494873 49.92150879 C77.81141765 51.35591544 79.97916072 52.80257372 82.14501953 54.25292969 C83.37774131 55.06864413 84.61063741 55.88409522 85.84375 56.69921875 C86.87185791 57.38612793 87.89996582 58.07303711 88.95922852 58.78076172 C93.43846678 61.27888941 98.01808099 62.66625199 103.15625 62.765625 C103.87361328 62.79076172 104.59097656 62.81589844 105.33007812 62.84179688 C106.79873762 62.8770447 108.26749889 62.90827418 109.73632812 62.93554688 C115.27901105 63.14009233 119.39305947 64.32865805 123.77734375 67.95703125 C126.1573575 70.9633644 126.09350467 73.93152773 126.10528564 77.59883118 C126.11099579 78.66288177 126.11670593 79.72693237 126.12258911 80.82322693 C126.12370697 81.99055862 126.12482483 83.15789032 126.12597656 84.3605957 C126.13094147 85.59009949 126.13590637 86.81960327 126.14102173 88.08636475 C126.15313171 91.46046518 126.16058892 94.83450362 126.16503239 98.2086184 C126.16796479 100.31746389 126.17206993 102.42630396 126.17653656 104.53514671 C126.19020941 111.1356651 126.19987695 117.73617108 126.20373845 124.33670264 C126.20821799 131.95146895 126.2257618 139.56605566 126.25473905 147.18076736 C126.27636936 153.06962396 126.28644346 158.95843008 126.28777957 164.84732598 C126.28882669 168.36310908 126.2947145 171.87872328 126.31259918 175.39446449 C126.33217076 179.31812942 126.32778549 183.24157065 126.32128906 187.1652832 C126.33050385 188.32654221 126.33971863 189.48780121 126.34921265 190.68424988 C126.31995102 196.31946716 126.28574337 200.65571256 122.96484375 205.45703125 C119.42469685 208.27907399 117.02922249 208.778695 112.57421875 208.4765625 C96.24586359 207.91607317 82.95487015 210.68029191 67.58984375 216.14453125 C66.724198 216.45226471 65.85855225 216.75999817 64.9666748 217.07705688 C57.80609405 219.64885663 50.68917139 222.32531739 43.65136719 225.21728516 C42.97729828 225.49329056 42.30322937 225.76929596 41.60873413 226.05366516 C39.81504306 226.79407707 38.02712768 227.54843901 36.23974609 228.30395508 C29.35125672 230.72935655 22.35316292 230.6145788 15.1394043 230.6340332 C14.07179871 230.6406044 13.00419312 230.6471756 11.90423584 230.65394592 C8.38667724 230.67358606 4.86916109 230.68531917 1.3515625 230.6953125 C0.14584909 230.69938803 -1.05986431 230.70346355 -2.30211449 230.70766258 C-8.6808187 230.72848107 -15.05950164 230.74280252 -21.43823242 230.75219727 C-28.01188039 230.7632688 -34.58519056 230.79768996 -41.15871906 230.83736897 C-46.2280692 230.86355327 -51.2973389 230.87189062 -56.36675072 230.87547874 C-58.78954545 230.88033784 -61.21233675 230.89193236 -63.63506508 230.91051674 C-67.0308253 230.93495193 -70.42571136 230.933935 -73.8215332 230.92700195 C-75.30800606 230.94621704 -75.30800606 230.94621704 -76.82450867 230.96582031 C-85.80713696 230.89929555 -93.81460048 228.43373423 -100.5 222.23828125 C-106.61432562 215.14379657 -108.36673585 208.01139075 -108.3359375 198.84375 C-107.91901707 194.14933421 -106.37699853 190.50298198 -104.03515625 186.45703125 C-104.83953125 186.43640625 -105.64390625 186.41578125 -106.47265625 186.39453125 C-112.47336729 184.81539677 -117.16137267 181.17246704 -120.6875 176.0625 C-121.89747556 173.89155835 -123.003934 171.71743358 -124.03515625 169.45703125 C-124.36515625 168.79703125 -124.69515625 168.13703125 -125.03515625 167.45703125 C-125.67408541 158.8890959 -125.85172849 151.83240749 -121.03515625 144.45703125 C-122.36160156 144.08578125 -122.36160156 144.08578125 -123.71484375 143.70703125 C-130.66364642 141.09101142 -136.56492287 135.47232707 -139.66015625 128.70703125 C-142.60079047 119.77363536 -141.77391352 111.83747458 -138.03515625 103.45703125 C-139.25509277 103.47797852 -140.4750293 103.49892578 -141.73193359 103.52050781 C-146.29789291 103.59341212 -150.86380173 103.63901295 -155.43017578 103.67675781 C-157.39901407 103.69675912 -159.36779381 103.72396927 -161.33642578 103.75878906 C-164.18146283 103.80781656 -167.0257084 103.83011507 -169.87109375 103.84765625 C-171.17172256 103.87862396 -171.17172256 103.87862396 -172.49862671 103.91021729 C-181.80519802 103.91356413 -189.5175993 100.75354234 -196.27734375 94.390625 C-202.18490241 87.89231048 -204.42798021 81.89202761 -204.3125 73.1796875 C-203.52822281 65.48051565 -199.8957695 58.47397402 -194.03515625 53.45703125 C-185.27502433 47.7286748 -177.66599273 46.58815822 -167.36230469 46.68408203 C-165.93196456 46.67589104 -164.50163745 46.66507708 -163.07133484 46.65187073 C-159.22685213 46.62367437 -155.38323457 46.63170624 -151.53871059 46.64673853 C-147.5067772 46.65617804 -143.47504659 46.63161345 -139.44317627 46.61080933 C-131.8255216 46.57659085 -124.20816764 46.57251338 -116.59045148 46.57953441 C-107.91068318 46.58604658 -99.23112385 46.55854716 -90.55141783 46.528332 C-72.71263589 46.46698755 -54.87403444 46.4478959 -37.03515625 46.45703125 C-37.43831055 46.08006104 -37.84146484 45.70309082 -38.25683594 45.31469727 C-40.11329315 43.56353882 -41.94898845 41.79194322 -43.78515625 40.01953125 C-44.419375 39.42720703 -45.05359375 38.83488281 -45.70703125 38.22460938 C-51.24702212 32.8288891 -54.46654549 27.31574154 -55.6015625 19.61328125 C-55.59134385 10.04862449 -54.47243832 4.32345085 -48.015625 -2.7578125 C-32.24515247 -18.03114229 -15.70875913 -11.09316379 0 0 Z " fill="#333333" transform="translate(220.03515625,20.54296875)"/>
</svg>
