<?xml version="1.0" encoding="UTF-8"?>
<svg version="1.1" xmlns="http://www.w3.org/2000/svg" width="185" height="175">
<path d="M0 0 C61.05 0 122.1 0 185 0 C185 57.75 185 115.5 185 175 C123.95 175 62.9 175 0 175 C0 117.25 0 59.5 0 0 Z " fill="#FDFDFE" transform="translate(0,0)"/>
<path d="M0 0 C1.22088821 0.00037766 2.44177643 0.00075531 3.69966125 0.00114441 C5.00815536 0.02695084 6.31664948 0.05275726 7.66479492 0.0793457 C9.02527057 0.08867883 10.38576309 0.09579259 11.7462616 0.1007843 C15.31577484 0.11981565 18.88426021 0.16888015 22.45336914 0.2243042 C26.09987484 0.27558192 29.74654772 0.29831633 33.39331055 0.32348633 C40.54021377 0.37700482 47.68642138 0.46226878 54.83276367 0.56762695 C55.63589632 2.47943761 56.43742563 4.39192187 57.23828125 6.3046875 C57.68480545 7.36962936 58.13132965 8.43457123 58.59138489 9.53178406 C60.05646747 13.1147038 61.32019065 16.70016883 62.52026367 20.38012695 C62.91600586 21.58282227 63.31174805 22.78551758 63.71948242 24.0246582 C64.45749594 26.37335384 65.16116697 28.73313669 65.82885742 31.1027832 C66.82171809 34.52950465 67.97681238 37.84475306 69.20776367 41.19262695 C71.64208721 47.92494012 73.77580819 54.71110867 75.83276367 61.56762695 C81.44276367 61.89762695 87.05276367 62.22762695 92.83276367 62.56762695 C92.83276367 60.58762695 92.83276367 58.60762695 92.83276367 56.56762695 C95.47276367 56.56762695 98.11276367 56.56762695 100.83276367 56.56762695 C100.83276367 58.87762695 100.83276367 61.18762695 100.83276367 63.56762695 C108.42276367 63.56762695 116.01276367 63.56762695 123.83276367 63.56762695 C123.83276367 65.87762695 123.83276367 68.18762695 123.83276367 70.56762695 C122.88916992 70.3974707 122.88916992 70.3974707 121.92651367 70.22387695 C118.65829703 70.02699643 116.83340102 70.18041907 113.83276367 71.56762695 C110.56390892 75.76215175 108.70803277 80.88535604 106.66918945 85.75366211 C105.66254211 87.93678814 104.39633893 89.7458466 102.83276367 91.56762695 C104.19118387 94.61095461 105.71739391 96.69071846 108.09057617 99.02075195 C108.71577148 99.63950195 109.3409668 100.25825195 109.98510742 100.89575195 C110.63608398 101.5299707 111.28706055 102.16418945 111.95776367 102.81762695 C112.61647461 103.46731445 113.27518555 104.11700195 113.95385742 104.78637695 C115.5757301 106.38474423 117.20209177 107.97824593 118.83276367 109.56762695 C117.51276367 111.21762695 116.19276367 112.86762695 114.83276367 114.56762695 C111.27237934 113.24896609 109.45431512 111.09201597 107.12963867 108.1574707 C105.19870738 105.79033505 103.02004466 103.69579224 100.83276367 101.56762695 C100.17276367 100.90762695 99.51276367 100.24762695 98.83276367 99.56762695 C96.12398193 99.77599478 94.2883118 100.29429808 91.95776367 101.69262695 C90.12057499 104.7546081 91.07626238 107.19246734 91.83276367 110.56762695 C92.20401367 111.45450195 92.57526367 112.34137695 92.95776367 113.25512695 C94.03230502 116.09498624 93.96003641 116.76414867 92.83276367 119.56762695 C91.04833429 121.67939484 89.25600031 123.6538254 87.33276367 125.63012695 C82.50551471 130.69772788 78.05356104 135.88239096 73.77026367 141.4230957 C71.83953553 143.56013149 70.40165905 144.38365191 67.83276367 145.56762695 C66.70167259 142.40310353 65.57902818 139.23564413 64.45776367 136.06762695 C64.1406543 135.18075195 63.82354492 134.29387695 63.49682617 133.38012695 C63.18745117 132.50356445 62.87807617 131.62700195 62.55932617 130.72387695 C62.13514404 129.52988281 62.13514404 129.52988281 61.70239258 128.31176758 C60.57818604 124.76429943 59.70999795 121.18411768 58.83276367 117.56762695 C58.04206985 117.5765094 57.25137604 117.58539185 56.4367218 117.59454346 C48.97722869 117.67476422 41.51794536 117.73562897 34.05813313 117.77487564 C30.22313821 117.79573134 26.38850036 117.82401111 22.55371094 117.86938477 C18.85137115 117.91291603 15.14937433 117.93677924 11.44679832 117.94713593 C10.03579498 117.95451437 8.62480995 117.96892309 7.21395302 117.99054718 C5.2346192 118.01967174 3.25493865 118.02126162 1.27539062 118.02172852 C0.14954056 118.03061096 -0.97630951 118.03949341 -2.13627625 118.04864502 C-5.84933194 117.45937732 -7.49678694 116.15991381 -10.16723633 113.56762695 C-11.32383201 111.25443558 -11.30258108 109.9117746 -11.32113647 107.33659363 C-11.32973694 106.44916977 -11.3383374 105.56174591 -11.34719849 104.64743042 C-11.35145844 103.67129791 -11.35571838 102.69516541 -11.36010742 101.68945312 C-11.36828491 100.66331406 -11.3764624 99.63717499 -11.3848877 98.5799408 C-11.40976453 95.17349843 -11.42626281 91.76709777 -11.44067383 88.3605957 C-11.44865934 86.61853065 -11.44865934 86.61853065 -11.45680618 84.84127235 C-11.48354656 78.69529505 -11.50291943 72.54933813 -11.51733398 66.40332031 C-11.53399208 60.04754607 -11.5787777 53.69228932 -11.62970543 47.33671093 C-11.66332014 42.45627733 -11.67490509 37.57596748 -11.68056107 32.69542885 C-11.68728852 30.35221714 -11.70254905 28.00901399 -11.72645187 25.66591454 C-11.75798375 22.38817218 -11.75815776 19.11183786 -11.75073242 15.83398438 C-11.76713776 14.86392456 -11.78354309 13.89386475 -11.80044556 12.89440918 C-11.75896634 8.42718316 -11.61371885 6.21236914 -9.01622009 2.4614563 C-5.6817881 0.2449308 -3.9754684 -0.04115392 0 0 Z " fill="#508DF4" transform="translate(25.167236328125,21.432373046875)"/>
<path d="M0 0 C8.25815214 -0.09276991 16.51608577 -0.16379982 24.77463055 -0.20724869 C28.60962547 -0.22810438 32.44426331 -0.25638415 36.27905273 -0.30175781 C39.98139253 -0.34528908 43.68338934 -0.36915229 47.38596535 -0.37950897 C48.79696869 -0.38688742 50.20795372 -0.40129614 51.61881065 -0.42292023 C53.59814448 -0.45204479 55.57782502 -0.45363467 57.55737305 -0.45410156 C58.68322311 -0.46298401 59.80907318 -0.47186646 60.96903992 -0.48101807 C64.68209561 0.10824963 66.32955061 1.40771314 69 4 C70.15659568 6.31319137 70.13534475 7.65585236 70.15390015 10.23103333 C70.16250061 11.11845718 70.17110107 12.00588104 70.17996216 12.92019653 C70.18422211 13.89632904 70.18848206 14.87246155 70.19287109 15.87817383 C70.20513733 17.41738243 70.20513733 17.41738243 70.21765137 18.98768616 C70.2425282 22.39412852 70.25902648 25.80052918 70.2734375 29.20703125 C70.27876118 30.36840796 70.28408485 31.52978466 70.28956985 32.7263546 C70.31631023 38.87233191 70.33568311 45.01828883 70.35009766 51.16430664 C70.36675575 57.52008089 70.41154137 63.87533764 70.4624691 70.23091602 C70.49608381 75.11134962 70.50766876 79.99165947 70.51332474 84.8721981 C70.52005219 87.21540982 70.53531273 89.55861297 70.55921555 91.90171242 C70.59074743 95.17945477 70.59092143 98.45578909 70.58349609 101.73364258 C70.59990143 102.70370239 70.61630676 103.67376221 70.63320923 104.67321777 C70.59053326 109.26933139 70.51220164 111.32858005 67.65103149 115.07914734 C63.74201537 117.91149544 60.94745695 118.12355535 56.2434082 118.11352539 C54.47191154 118.11341209 54.47191154 118.11341209 52.66462708 118.11329651 C51.38955795 118.10813522 50.11448883 118.10297394 48.80078125 118.09765625 C47.49545944 118.0962413 46.19013763 118.09482635 44.84526062 118.09336853 C41.37810344 118.0895538 37.91098826 118.07973244 34.44384766 118.06866455 C30.90462818 118.05842798 27.3654019 118.0538661 23.82617188 118.04882812 C16.88409735 118.03810923 9.94205069 118.02104534 3 118 C3 117.34 3 116.68 3 116 C4.65987421 114.65822015 6.32780187 113.32638945 8 112 C9.41976026 110.37129389 10.79323783 108.70141479 12.125 107 C14.65873123 103.79859635 17.18473848 100.75512253 20.0625 97.859375 C20.57151855 97.33988281 21.08053711 96.82039063 21.60498047 96.28515625 C22.59829519 95.28194986 23.60735774 94.29403218 24.63330078 93.32421875 C26.23601959 91.77135059 26.23601959 91.77135059 28 89 C27.88107755 85.45462453 27.53321492 83.00718373 25.875 79.875 C24.62089577 77.18763379 25.03182511 75.76621398 26 73 C27.75 70.625 27.75 70.625 30 69 C32.5 68.9375 32.5 68.9375 35 70 C36.38903267 71.62053812 37.71332828 73.29705213 39 75 C40.76158668 76.58304749 42.57194723 78.08214078 44.4140625 79.5703125 C46 81 46 81 48 84 C49.98 83.01 49.98 83.01 52 82 C52.31275311 79.02321925 52.31275311 79.02321925 50.62304688 77.2824707 C49.99462891 76.66976318 49.36621094 76.05705566 48.71875 75.42578125 C48.04199219 74.75869141 47.36523438 74.09160156 46.66796875 73.40429688 C45.59482422 72.36885742 45.59482422 72.36885742 44.5 71.3125 C43.78457031 70.61060547 43.06914062 69.90871094 42.33203125 69.18554688 C40.56120423 67.45013639 38.78376544 65.7220927 37 64 C38.18239252 60.86315045 39.45575127 58.10064711 41.3125 55.3125 C44.25838153 50.72709512 46.63769739 45.90554756 49 41 C52.3 41 55.6 41 59 41 C59 38.69 59 36.38 59 34 C51.41 34 43.82 34 36 34 C36 31.69 36 29.38 36 27 C33.36 27 30.72 27 28 27 C28 28.98 28 30.96 28 33 C22.39 33 16.78 33 11 33 C8.88313043 28.5545739 6.96584543 24.47500021 6.0625 19.625 C5.14946225 14.85877544 3.18225811 10.80434934 1.0234375 6.48046875 C0 4 0 4 0 0 Z " fill="#DCDCDE" transform="translate(90,51)"/>
<path d="M0 0 C1.89158742 1.19450869 3.6217709 2.41210377 5.30859375 3.87890625 C4.6000034 7.07749636 4.07545739 8.93185406 1.30859375 10.87890625 C-1.01629506 10.59710155 -2.6003346 9.92444207 -4.69140625 8.87890625 C-9.94691296 8.35507307 -14.35606811 8.25892783 -19.19140625 10.50390625 C-22.97936746 14.1024694 -24.45777034 17.0765721 -25.12890625 22.25390625 C-24.40965972 28.21337749 -22.4038594 32.28592657 -18.00390625 36.37890625 C-12.59831717 38.82672017 -7.97361167 38.33534733 -2.25390625 37.19140625 C0.48323327 36.09961218 0.48323327 36.09961218 1.55859375 33.50390625 C1.80609375 32.63765625 2.05359375 31.77140625 2.30859375 30.87890625 C2.96859375 29.55890625 3.62859375 28.23890625 4.30859375 26.87890625 C-0.31140625 26.87890625 -4.93140625 26.87890625 -9.69140625 26.87890625 C-9.69140625 24.23890625 -9.69140625 21.59890625 -9.69140625 18.87890625 C-2.10140625 18.87890625 5.48859375 18.87890625 13.30859375 18.87890625 C13.79531277 27.34781726 13.63141795 33.07519133 8.30859375 39.87890625 C3.28298045 45.25483039 -2.11069579 48.03205678 -9.44140625 48.37890625 C-16.85308967 48.1493002 -22.57203493 46.07930021 -27.796875 40.71875 C-33.23415015 34.00343492 -35.24316437 28.60657488 -35.0625 19.9453125 C-34.1212839 12.16789522 -29.52623506 7.21183485 -23.75390625 2.2890625 C-17.07364008 -2.27831645 -7.48101973 -3.11618674 0 0 Z " fill="#E7EAEF" transform="translate(67.69140625,57.12109375)"/>
<path d="M0 0 C2.64 0 5.28 0 8 0 C8 2.31 8 4.62 8 7 C15.59 7 23.18 7 31 7 C31 9.31 31 11.62 31 14 C30.3709375 13.8865625 29.741875 13.773125 29.09375 13.65625 C25.82553336 13.45936948 24.00063735 13.61279212 21 15 C17.73114524 19.1945248 15.8752691 24.31772909 13.83642578 29.18603516 C12.82977844 31.36916119 11.56357526 33.17821965 10 35 C11.3584202 38.04332765 12.88463024 40.12309151 15.2578125 42.453125 C15.88300781 43.071875 16.50820312 43.690625 17.15234375 44.328125 C17.80332031 44.96234375 18.45429688 45.5965625 19.125 46.25 C19.78371094 46.8996875 20.44242188 47.549375 21.12109375 48.21875 C22.74296643 49.81711727 24.3693281 51.41061897 26 53 C24.02 55.475 24.02 55.475 22 58 C18.43961567 56.68133914 16.62155145 54.52438902 14.296875 51.58984375 C12.3659437 49.22270809 10.18728099 47.12816528 8 45 C7.34 44.34 6.68 43.68 6 43 C1.60370982 43.23763731 -0.77258856 45.14143559 -4 48 C-4.99 44.535 -4.99 44.535 -6 41 C-4.68 39.68 -3.36 38.36 -2 37 C-3.96454718 32.89924618 -6.36375434 29.10246311 -8.7578125 25.2421875 C-10 23 -10 23 -10 21 C-6.875 20.5 -6.875 20.5 -3 21 C-0.57047394 23.40317545 1.2262164 26.08917564 3 29 C8.66666667 26.66666667 8.66666667 26.66666667 13 15 C-0.86 14.505 -0.86 14.505 -15 14 C-15.66 11.36 -16.32 8.72 -17 6 C-11.39 6 -5.78 6 0 6 C0 4.02 0 2.04 0 0 Z " fill="#6B8490" transform="translate(118,78)"/>
<path d="M0 0 C10.89 0 21.78 0 33 0 C31.09476825 3.8104635 29.32340956 5.99593882 26.4375 9.0625 C22.04304564 13.79401092 17.9742769 18.68437084 14.0078125 23.78515625 C12.03636657 25.95988357 10.61446681 26.79832595 8 28 C7.79318604 27.40461426 7.58637207 26.80922852 7.37329102 26.19580078 C6.43775366 23.50504717 5.50015265 20.81501718 4.5625 18.125 C4.23701172 17.18785156 3.91152344 16.25070313 3.57617188 15.28515625 C3.26357422 14.38925781 2.95097656 13.49335938 2.62890625 12.5703125 C2.34088135 11.74289551 2.05285645 10.91547852 1.75610352 10.06298828 C1.03552089 7.97762032 1.03552089 7.97762032 0 6 C0 4.02 0 2.04 0 0 Z " fill="#4657B6" transform="translate(85,139)"/>
<path d="M0 0 C9.24 0 18.48 0 28 0 C24.625 9 24.625 9 21.8125 12.5 C21.01779297 13.50546875 21.01779297 13.50546875 20.20703125 14.53125 C19.80871094 15.0159375 19.41039063 15.500625 19 16 C15.78303193 14.6212994 15.06448335 14.10895463 13.1875 10.9375 C11.23155914 7.61811791 11.23155914 7.61811791 7.36328125 7.31640625 C6.25339844 7.21199219 5.14351563 7.10757813 4 7 C4.5775 7.89203125 5.155 8.7840625 5.75 9.703125 C6.50047142 10.88511748 7.2504455 12.06742584 8 13.25 C8.3815625 13.83652344 8.763125 14.42304687 9.15625 15.02734375 C11.27747611 18.3985781 12 19.90580718 12 24 C10 25.75 10 25.75 8 27 C6.66197735 22.876506 5.33037699 18.75096648 4 14.625 C3.6184375 13.449375 3.236875 12.27375 2.84375 11.0625 C2.4828125 9.94101563 2.121875 8.81953125 1.75 7.6640625 C1.41484375 6.62717285 1.0796875 5.5902832 0.734375 4.52197266 C0 2 0 2 0 0 Z " fill="#D4D5D7" transform="translate(104,92)"/>
<path d="M0 0 C2.97 0 5.94 0 9 0 C9 0.33 9 0.66 9 1 C6.69 1 4.38 1 2 1 C2.5775 1.89203125 3.155 2.7840625 3.75 3.703125 C4.50047142 4.88511748 5.2504455 6.06742584 6 7.25 C6.3815625 7.83652344 6.763125 8.42304687 7.15625 9.02734375 C9.27747611 12.3985781 10 13.90580718 10 18 C8 19.75 8 19.75 6 21 C4.99263372 18.06497405 3.99539496 15.12660539 3 12.1875 C2.71382813 11.35412109 2.42765625 10.52074219 2.1328125 9.66210938 C1.72675781 8.45844727 1.72675781 8.45844727 1.3125 7.23046875 C1.06113281 6.49207764 0.80976562 5.75368652 0.55078125 4.99291992 C0 3 0 3 0 0 Z " fill="#B6BBC9" transform="translate(106,98)"/>
<path d="M0 0 C0.66 0.33 1.32 0.66 2 1 C-0.31 3.31 -2.62 5.62 -5 8 C-5.33 7.34 -5.66 6.68 -6 6 C-4 4 -2 2 0 0 Z " fill="#689CF3" transform="translate(50,66)"/>
</svg>
